<mxfile host="app.diagrams.net" agent="Mozilla/5.0 (Windows NT 10.0; Win64; x64) AppleWebKit/537.36 (KHTML, like Gecko) Chrome/128.0.0.0 Safari/537.36" version="24.7.8">
  <diagram name="Página-1" id="_zLNtOthIxGoy3EygHmK">
    <mxGraphModel grid="1" page="1" gridSize="10" guides="1" tooltips="1" connect="1" arrows="1" fold="1" pageScale="1" pageWidth="827" pageHeight="1169" math="0" shadow="0">
      <root>
        <mxCell id="0" />
        <mxCell id="1" parent="0" />
        <mxCell id="9llpCdJ2t5yvebPbqUVQ-3" value="" style="rounded=0;whiteSpace=wrap;html=1;labelBackgroundColor=#CCFF99;fillColor=#A9C4EB;fontColor=#333333;strokeColor=#666666;" vertex="1" parent="1">
          <mxGeometry x="-1" width="830" height="560" as="geometry" />
        </mxCell>
        <mxCell id="F8pYNd4cU8Y4GjAcaj48-25" value="&lt;div style=&quot;font-size: 19px;&quot;&gt;Titulo&lt;/div&gt;&lt;div style=&quot;font-size: 19px;&quot;&gt;&lt;font style=&quot;font-size: 19px;&quot;&gt;texto&lt;span style=&quot;background-color: initial;&quot;&gt;texto&lt;/span&gt;&lt;span style=&quot;background-color: initial;&quot;&gt;texto&lt;/span&gt;&lt;span style=&quot;background-color: initial;&quot;&gt;texto&lt;/span&gt;&lt;span style=&quot;background-color: initial;&quot;&gt;texto&lt;/span&gt;&lt;span style=&quot;background-color: initial;&quot;&gt;texto&lt;/span&gt;&lt;span style=&quot;background-color: initial;&quot;&gt;texto&lt;/span&gt;&lt;span style=&quot;background-color: initial;&quot;&gt;texto&lt;/span&gt;&lt;span style=&quot;background-color: initial;&quot;&gt;texto&lt;/span&gt;&lt;span style=&quot;background-color: initial;&quot;&gt;texto&lt;/span&gt;&lt;/font&gt;&lt;/div&gt;&lt;div style=&quot;font-size: 19px;&quot;&gt;&lt;font style=&quot;font-size: 19px;&quot;&gt;texto&lt;span style=&quot;background-color: initial;&quot;&gt;texto&lt;/span&gt;&lt;span style=&quot;background-color: initial;&quot;&gt;texto&lt;/span&gt;&lt;span style=&quot;background-color: initial;&quot;&gt;texto&lt;/span&gt;&lt;span style=&quot;background-color: initial;&quot;&gt;texto&lt;/span&gt;&lt;span style=&quot;background-color: initial;&quot;&gt;texto&lt;/span&gt;&lt;span style=&quot;background-color: initial;&quot;&gt;texto&lt;/span&gt;&lt;span style=&quot;background-color: initial;&quot;&gt;texto&lt;/span&gt;&lt;span style=&quot;background-color: initial;&quot;&gt;texto&lt;/span&gt;&lt;span style=&quot;background-color: initial;&quot;&gt;texto&lt;/span&gt;&lt;br&gt;&lt;/font&gt;&lt;/div&gt;&lt;div style=&quot;font-size: 19px;&quot;&gt;&lt;font style=&quot;font-size: 19px;&quot;&gt;texto&lt;span style=&quot;background-color: initial;&quot;&gt;texto&lt;/span&gt;&lt;span style=&quot;background-color: initial;&quot;&gt;texto&lt;/span&gt;&lt;span style=&quot;background-color: initial;&quot;&gt;texto&lt;/span&gt;&lt;span style=&quot;background-color: initial;&quot;&gt;texto&lt;/span&gt;&lt;span style=&quot;background-color: initial;&quot;&gt;t.&lt;/span&gt;&lt;/font&gt;&lt;/div&gt;" style="text;html=1;align=right;verticalAlign=middle;whiteSpace=wrap;rounded=0;fontSize=20;" vertex="1" parent="1">
          <mxGeometry x="342" y="278.38" width="460" height="115.62" as="geometry" />
        </mxCell>
        <mxCell id="1cnSTbWCLQz26yeDxx1u-7" value="" style="rounded=0;whiteSpace=wrap;html=1;fillColor=#4D4D4D;" vertex="1" parent="1">
          <mxGeometry width="830" height="160" as="geometry" />
        </mxCell>
        <mxCell id="1cnSTbWCLQz26yeDxx1u-18" value="" style="group" connectable="0" vertex="1" parent="1">
          <mxGeometry x="310" y="123.00058823529412" width="330" height="22.945882352941197" as="geometry" />
        </mxCell>
        <mxCell id="9llpCdJ2t5yvebPbqUVQ-5" value="HOME" style="text;html=1;align=center;verticalAlign=middle;whiteSpace=wrap;rounded=0;fontStyle=1;fontSize=11;fontColor=#FFFFFF;" vertex="1" parent="1cnSTbWCLQz26yeDxx1u-18">
          <mxGeometry y="2.842170943040401e-14" width="100" height="22.941176470588236" as="geometry" />
        </mxCell>
        <mxCell id="9llpCdJ2t5yvebPbqUVQ-6" value="MINHA TRAGETÓRIA" style="text;html=1;align=center;verticalAlign=middle;whiteSpace=wrap;rounded=0;fontStyle=1;fontSize=11;fontColor=#FFFFFF;" vertex="1" parent="1cnSTbWCLQz26yeDxx1u-18">
          <mxGeometry x="70" y="3.8235294117647243" width="111" height="15.294117647058822" as="geometry" />
        </mxCell>
        <mxCell id="9llpCdJ2t5yvebPbqUVQ-7" value="EXPERIÊNCIAS" style="text;html=1;align=center;verticalAlign=middle;whiteSpace=wrap;rounded=0;fontStyle=1;fontSize=11;fontColor=#FFFFFF;" vertex="1" parent="1cnSTbWCLQz26yeDxx1u-18">
          <mxGeometry x="190" width="60" height="22.941176470588236" as="geometry" />
        </mxCell>
        <mxCell id="9llpCdJ2t5yvebPbqUVQ-8" value="CONTATO" style="text;html=1;align=center;verticalAlign=middle;whiteSpace=wrap;rounded=0;fontStyle=1;fontSize=11;fontColor=#FFFFFF;" vertex="1" parent="1cnSTbWCLQz26yeDxx1u-18">
          <mxGeometry x="270" y="0.004705882352965318" width="60" height="22.941176470588236" as="geometry" />
        </mxCell>
        <mxCell id="1cnSTbWCLQz26yeDxx1u-20" value="&lt;font color=&quot;#ffffff&quot;&gt;Portifólio Pessoal de Desenvolvedor e Analista de Sistema&lt;/font&gt;" style="text;html=1;align=right;verticalAlign=middle;whiteSpace=wrap;rounded=0;fontSize=25;" vertex="1" parent="1">
          <mxGeometry x="400" y="40" width="420" height="20" as="geometry" />
        </mxCell>
        <mxCell id="1cnSTbWCLQz26yeDxx1u-22" value="" style="endArrow=none;html=1;rounded=0;entryX=0.999;entryY=0.606;entryDx=0;entryDy=0;entryPerimeter=0;strokeColor=#FFFFFF;strokeWidth=6;" edge="1" parent="1">
          <mxGeometry width="50" height="50" relative="1" as="geometry">
            <mxPoint x="512" y="97" as="sourcePoint" />
            <mxPoint x="831.1700000000001" y="96.96000000000004" as="targetPoint" />
          </mxGeometry>
        </mxCell>
        <mxCell id="1cnSTbWCLQz26yeDxx1u-26" value="" style="endArrow=none;html=1;rounded=0;strokeColor=#FFFFFF;strokeWidth=6;" edge="1" parent="1">
          <mxGeometry width="50" height="50" relative="1" as="geometry">
            <mxPoint x="300" y="256" as="sourcePoint" />
            <mxPoint x="560" y="256" as="targetPoint" />
          </mxGeometry>
        </mxCell>
        <mxCell id="1cnSTbWCLQz26yeDxx1u-28" value="" style="group" connectable="0" vertex="1" parent="1">
          <mxGeometry x="320" y="201" width="232" height="50" as="geometry" />
        </mxCell>
        <mxCell id="F8pYNd4cU8Y4GjAcaj48-23" value="&lt;font&gt;Miércio Martinelli&lt;/font&gt;" style="text;html=1;align=left;verticalAlign=middle;whiteSpace=wrap;rounded=0;fontSize=28;fontColor=#000000;" vertex="1" parent="1cnSTbWCLQz26yeDxx1u-28">
          <mxGeometry width="220" height="20" as="geometry" />
        </mxCell>
        <mxCell id="1cnSTbWCLQz26yeDxx1u-27" value="Profissional DEV" style="text;html=1;align=left;verticalAlign=middle;whiteSpace=wrap;rounded=0;fontSize=19;fontColor=#000000;" vertex="1" parent="1cnSTbWCLQz26yeDxx1u-28">
          <mxGeometry x="82" y="30" width="150" height="20" as="geometry" />
        </mxCell>
        <mxCell id="1cnSTbWCLQz26yeDxx1u-29" value="Telefone: 21212121&lt;div style=&quot;font-size: 14px;&quot;&gt;E-mail: xxxxxxx@gmail.com&lt;/div&gt;" style="text;html=1;align=left;verticalAlign=middle;whiteSpace=wrap;rounded=0;fontSize=14;" vertex="1" parent="1">
          <mxGeometry x="41.96" y="340" width="208.04" height="190" as="geometry" />
        </mxCell>
        <mxCell id="1cnSTbWCLQz26yeDxx1u-168" value="" style="group" connectable="0" vertex="1" parent="1">
          <mxGeometry width="258" height="160" as="geometry" />
        </mxCell>
        <mxCell id="1cnSTbWCLQz26yeDxx1u-14" value="" style="rounded=0;whiteSpace=wrap;html=1;" vertex="1" parent="1cnSTbWCLQz26yeDxx1u-168">
          <mxGeometry width="250" height="160" as="geometry" />
        </mxCell>
        <mxCell id="1cnSTbWCLQz26yeDxx1u-100" value="" style="group" connectable="0" vertex="1" parent="1cnSTbWCLQz26yeDxx1u-168">
          <mxGeometry x="130" width="40" height="160" as="geometry" />
        </mxCell>
        <mxCell id="1cnSTbWCLQz26yeDxx1u-101" value="" style="shape=partialRectangle;whiteSpace=wrap;html=1;right=0;top=0;bottom=0;fillColor=none;routingCenterX=-0.5;strokeColor=#000000;" vertex="1" parent="1cnSTbWCLQz26yeDxx1u-100">
          <mxGeometry width="10" height="160" as="geometry" />
        </mxCell>
        <mxCell id="1cnSTbWCLQz26yeDxx1u-102" value="" style="shape=partialRectangle;whiteSpace=wrap;html=1;right=0;top=0;bottom=0;fillColor=none;routingCenterX=-0.5;strokeColor=#000000;" vertex="1" parent="1cnSTbWCLQz26yeDxx1u-100">
          <mxGeometry x="2" width="10" height="160" as="geometry" />
        </mxCell>
        <mxCell id="1cnSTbWCLQz26yeDxx1u-103" value="" style="shape=partialRectangle;whiteSpace=wrap;html=1;right=0;top=0;bottom=0;fillColor=none;routingCenterX=-0.5;strokeColor=#000000;" vertex="1" parent="1cnSTbWCLQz26yeDxx1u-100">
          <mxGeometry x="4" width="10" height="160" as="geometry" />
        </mxCell>
        <mxCell id="1cnSTbWCLQz26yeDxx1u-104" value="" style="shape=partialRectangle;whiteSpace=wrap;html=1;right=0;top=0;bottom=0;fillColor=none;routingCenterX=-0.5;strokeColor=#000000;" vertex="1" parent="1cnSTbWCLQz26yeDxx1u-100">
          <mxGeometry x="6" width="10" height="160" as="geometry" />
        </mxCell>
        <mxCell id="1cnSTbWCLQz26yeDxx1u-105" value="" style="shape=partialRectangle;whiteSpace=wrap;html=1;right=0;top=0;bottom=0;fillColor=none;routingCenterX=-0.5;strokeColor=#000000;" vertex="1" parent="1cnSTbWCLQz26yeDxx1u-100">
          <mxGeometry x="8" width="10" height="160" as="geometry" />
        </mxCell>
        <mxCell id="1cnSTbWCLQz26yeDxx1u-106" value="" style="shape=partialRectangle;whiteSpace=wrap;html=1;right=0;top=0;bottom=0;fillColor=none;routingCenterX=-0.5;strokeColor=#000000;" vertex="1" parent="1cnSTbWCLQz26yeDxx1u-100">
          <mxGeometry x="10" width="10" height="160" as="geometry" />
        </mxCell>
        <mxCell id="1cnSTbWCLQz26yeDxx1u-107" value="" style="shape=partialRectangle;whiteSpace=wrap;html=1;right=0;top=0;bottom=0;fillColor=none;routingCenterX=-0.5;strokeColor=#000000;" vertex="1" parent="1cnSTbWCLQz26yeDxx1u-100">
          <mxGeometry x="12" width="10" height="160" as="geometry" />
        </mxCell>
        <mxCell id="1cnSTbWCLQz26yeDxx1u-108" value="" style="shape=partialRectangle;whiteSpace=wrap;html=1;right=0;top=0;bottom=0;fillColor=none;routingCenterX=-0.5;strokeColor=#000000;" vertex="1" parent="1cnSTbWCLQz26yeDxx1u-100">
          <mxGeometry x="14" width="10" height="160" as="geometry" />
        </mxCell>
        <mxCell id="1cnSTbWCLQz26yeDxx1u-109" value="" style="shape=partialRectangle;whiteSpace=wrap;html=1;right=0;top=0;bottom=0;fillColor=none;routingCenterX=-0.5;strokeColor=#000000;" vertex="1" parent="1cnSTbWCLQz26yeDxx1u-100">
          <mxGeometry x="16" width="10" height="160" as="geometry" />
        </mxCell>
        <mxCell id="1cnSTbWCLQz26yeDxx1u-110" value="" style="shape=partialRectangle;whiteSpace=wrap;html=1;right=0;top=0;bottom=0;fillColor=none;routingCenterX=-0.5;strokeColor=#000000;" vertex="1" parent="1cnSTbWCLQz26yeDxx1u-100">
          <mxGeometry x="18" width="10" height="160" as="geometry" />
        </mxCell>
        <mxCell id="1cnSTbWCLQz26yeDxx1u-111" value="" style="shape=partialRectangle;whiteSpace=wrap;html=1;right=0;top=0;bottom=0;fillColor=none;routingCenterX=-0.5;strokeColor=#000000;" vertex="1" parent="1cnSTbWCLQz26yeDxx1u-100">
          <mxGeometry x="20" width="10" height="160" as="geometry" />
        </mxCell>
        <mxCell id="1cnSTbWCLQz26yeDxx1u-112" value="" style="shape=partialRectangle;whiteSpace=wrap;html=1;right=0;top=0;bottom=0;fillColor=none;routingCenterX=-0.5;strokeColor=#000000;" vertex="1" parent="1cnSTbWCLQz26yeDxx1u-100">
          <mxGeometry x="22" width="10" height="160" as="geometry" />
        </mxCell>
        <mxCell id="1cnSTbWCLQz26yeDxx1u-113" value="" style="shape=partialRectangle;whiteSpace=wrap;html=1;right=0;top=0;bottom=0;fillColor=none;routingCenterX=-0.5;strokeColor=#000000;" vertex="1" parent="1cnSTbWCLQz26yeDxx1u-100">
          <mxGeometry x="24" width="10" height="160" as="geometry" />
        </mxCell>
        <mxCell id="1cnSTbWCLQz26yeDxx1u-114" value="" style="shape=partialRectangle;whiteSpace=wrap;html=1;right=0;top=0;bottom=0;fillColor=none;routingCenterX=-0.5;strokeColor=#000000;" vertex="1" parent="1cnSTbWCLQz26yeDxx1u-100">
          <mxGeometry x="26" width="10" height="160" as="geometry" />
        </mxCell>
        <mxCell id="1cnSTbWCLQz26yeDxx1u-115" value="" style="shape=partialRectangle;whiteSpace=wrap;html=1;right=0;top=0;bottom=0;fillColor=none;routingCenterX=-0.5;strokeColor=#000000;" vertex="1" parent="1cnSTbWCLQz26yeDxx1u-100">
          <mxGeometry x="28" width="10" height="160" as="geometry" />
        </mxCell>
        <mxCell id="1cnSTbWCLQz26yeDxx1u-116" value="" style="shape=partialRectangle;whiteSpace=wrap;html=1;right=0;top=0;bottom=0;fillColor=none;routingCenterX=-0.5;strokeColor=#000000;" vertex="1" parent="1cnSTbWCLQz26yeDxx1u-100">
          <mxGeometry x="30" width="10" height="160" as="geometry" />
        </mxCell>
        <mxCell id="1cnSTbWCLQz26yeDxx1u-117" value="" style="group" connectable="0" vertex="1" parent="1cnSTbWCLQz26yeDxx1u-168">
          <mxGeometry x="162" width="40" height="160" as="geometry" />
        </mxCell>
        <mxCell id="1cnSTbWCLQz26yeDxx1u-118" value="" style="shape=partialRectangle;whiteSpace=wrap;html=1;right=0;top=0;bottom=0;fillColor=none;routingCenterX=-0.5;strokeColor=#000000;" vertex="1" parent="1cnSTbWCLQz26yeDxx1u-117">
          <mxGeometry width="10" height="160" as="geometry" />
        </mxCell>
        <mxCell id="1cnSTbWCLQz26yeDxx1u-119" value="" style="shape=partialRectangle;whiteSpace=wrap;html=1;right=0;top=0;bottom=0;fillColor=none;routingCenterX=-0.5;strokeColor=#000000;" vertex="1" parent="1cnSTbWCLQz26yeDxx1u-117">
          <mxGeometry x="2" width="10" height="160" as="geometry" />
        </mxCell>
        <mxCell id="1cnSTbWCLQz26yeDxx1u-120" value="" style="shape=partialRectangle;whiteSpace=wrap;html=1;right=0;top=0;bottom=0;fillColor=none;routingCenterX=-0.5;strokeColor=#000000;" vertex="1" parent="1cnSTbWCLQz26yeDxx1u-117">
          <mxGeometry x="4" width="10" height="160" as="geometry" />
        </mxCell>
        <mxCell id="1cnSTbWCLQz26yeDxx1u-121" value="" style="shape=partialRectangle;whiteSpace=wrap;html=1;right=0;top=0;bottom=0;fillColor=none;routingCenterX=-0.5;strokeColor=#000000;" vertex="1" parent="1cnSTbWCLQz26yeDxx1u-117">
          <mxGeometry x="6" width="10" height="160" as="geometry" />
        </mxCell>
        <mxCell id="1cnSTbWCLQz26yeDxx1u-122" value="" style="shape=partialRectangle;whiteSpace=wrap;html=1;right=0;top=0;bottom=0;fillColor=none;routingCenterX=-0.5;strokeColor=#000000;" vertex="1" parent="1cnSTbWCLQz26yeDxx1u-117">
          <mxGeometry x="8" width="10" height="160" as="geometry" />
        </mxCell>
        <mxCell id="1cnSTbWCLQz26yeDxx1u-123" value="" style="shape=partialRectangle;whiteSpace=wrap;html=1;right=0;top=0;bottom=0;fillColor=none;routingCenterX=-0.5;strokeColor=#000000;" vertex="1" parent="1cnSTbWCLQz26yeDxx1u-117">
          <mxGeometry x="10" width="10" height="160" as="geometry" />
        </mxCell>
        <mxCell id="1cnSTbWCLQz26yeDxx1u-124" value="" style="shape=partialRectangle;whiteSpace=wrap;html=1;right=0;top=0;bottom=0;fillColor=none;routingCenterX=-0.5;strokeColor=#000000;" vertex="1" parent="1cnSTbWCLQz26yeDxx1u-117">
          <mxGeometry x="12" width="10" height="160" as="geometry" />
        </mxCell>
        <mxCell id="1cnSTbWCLQz26yeDxx1u-125" value="" style="shape=partialRectangle;whiteSpace=wrap;html=1;right=0;top=0;bottom=0;fillColor=none;routingCenterX=-0.5;strokeColor=#000000;" vertex="1" parent="1cnSTbWCLQz26yeDxx1u-117">
          <mxGeometry x="14" width="10" height="160" as="geometry" />
        </mxCell>
        <mxCell id="1cnSTbWCLQz26yeDxx1u-126" value="" style="shape=partialRectangle;whiteSpace=wrap;html=1;right=0;top=0;bottom=0;fillColor=none;routingCenterX=-0.5;strokeColor=#000000;" vertex="1" parent="1cnSTbWCLQz26yeDxx1u-117">
          <mxGeometry x="16" width="10" height="160" as="geometry" />
        </mxCell>
        <mxCell id="1cnSTbWCLQz26yeDxx1u-127" value="" style="shape=partialRectangle;whiteSpace=wrap;html=1;right=0;top=0;bottom=0;fillColor=none;routingCenterX=-0.5;strokeColor=#000000;" vertex="1" parent="1cnSTbWCLQz26yeDxx1u-117">
          <mxGeometry x="18" width="10" height="160" as="geometry" />
        </mxCell>
        <mxCell id="1cnSTbWCLQz26yeDxx1u-128" value="" style="shape=partialRectangle;whiteSpace=wrap;html=1;right=0;top=0;bottom=0;fillColor=none;routingCenterX=-0.5;strokeColor=#000000;" vertex="1" parent="1cnSTbWCLQz26yeDxx1u-117">
          <mxGeometry x="20" width="10" height="160" as="geometry" />
        </mxCell>
        <mxCell id="1cnSTbWCLQz26yeDxx1u-129" value="" style="shape=partialRectangle;whiteSpace=wrap;html=1;right=0;top=0;bottom=0;fillColor=none;routingCenterX=-0.5;strokeColor=#000000;" vertex="1" parent="1cnSTbWCLQz26yeDxx1u-117">
          <mxGeometry x="22" width="10" height="160" as="geometry" />
        </mxCell>
        <mxCell id="1cnSTbWCLQz26yeDxx1u-130" value="" style="shape=partialRectangle;whiteSpace=wrap;html=1;right=0;top=0;bottom=0;fillColor=none;routingCenterX=-0.5;strokeColor=#000000;" vertex="1" parent="1cnSTbWCLQz26yeDxx1u-117">
          <mxGeometry x="24" width="10" height="160" as="geometry" />
        </mxCell>
        <mxCell id="1cnSTbWCLQz26yeDxx1u-131" value="" style="shape=partialRectangle;whiteSpace=wrap;html=1;right=0;top=0;bottom=0;fillColor=none;routingCenterX=-0.5;strokeColor=#000000;" vertex="1" parent="1cnSTbWCLQz26yeDxx1u-117">
          <mxGeometry x="26" width="10" height="160" as="geometry" />
        </mxCell>
        <mxCell id="1cnSTbWCLQz26yeDxx1u-132" value="" style="shape=partialRectangle;whiteSpace=wrap;html=1;right=0;top=0;bottom=0;fillColor=none;routingCenterX=-0.5;strokeColor=#000000;" vertex="1" parent="1cnSTbWCLQz26yeDxx1u-117">
          <mxGeometry x="28" width="10" height="160" as="geometry" />
        </mxCell>
        <mxCell id="1cnSTbWCLQz26yeDxx1u-133" value="" style="shape=partialRectangle;whiteSpace=wrap;html=1;right=0;top=0;bottom=0;fillColor=none;routingCenterX=-0.5;strokeColor=#000000;" vertex="1" parent="1cnSTbWCLQz26yeDxx1u-117">
          <mxGeometry x="30" width="10" height="160" as="geometry" />
        </mxCell>
        <mxCell id="1cnSTbWCLQz26yeDxx1u-134" value="" style="group" connectable="0" vertex="1" parent="1cnSTbWCLQz26yeDxx1u-168">
          <mxGeometry x="194" width="40" height="160" as="geometry" />
        </mxCell>
        <mxCell id="1cnSTbWCLQz26yeDxx1u-135" value="" style="shape=partialRectangle;whiteSpace=wrap;html=1;right=0;top=0;bottom=0;fillColor=none;routingCenterX=-0.5;strokeColor=#000000;" vertex="1" parent="1cnSTbWCLQz26yeDxx1u-134">
          <mxGeometry width="10" height="160" as="geometry" />
        </mxCell>
        <mxCell id="1cnSTbWCLQz26yeDxx1u-136" value="" style="shape=partialRectangle;whiteSpace=wrap;html=1;right=0;top=0;bottom=0;fillColor=none;routingCenterX=-0.5;strokeColor=#000000;" vertex="1" parent="1cnSTbWCLQz26yeDxx1u-134">
          <mxGeometry x="2" width="10" height="160" as="geometry" />
        </mxCell>
        <mxCell id="1cnSTbWCLQz26yeDxx1u-137" value="" style="shape=partialRectangle;whiteSpace=wrap;html=1;right=0;top=0;bottom=0;fillColor=none;routingCenterX=-0.5;strokeColor=#000000;" vertex="1" parent="1cnSTbWCLQz26yeDxx1u-134">
          <mxGeometry x="4" width="10" height="160" as="geometry" />
        </mxCell>
        <mxCell id="1cnSTbWCLQz26yeDxx1u-138" value="" style="shape=partialRectangle;whiteSpace=wrap;html=1;right=0;top=0;bottom=0;fillColor=none;routingCenterX=-0.5;strokeColor=#000000;" vertex="1" parent="1cnSTbWCLQz26yeDxx1u-134">
          <mxGeometry x="6" width="10" height="160" as="geometry" />
        </mxCell>
        <mxCell id="1cnSTbWCLQz26yeDxx1u-139" value="" style="shape=partialRectangle;whiteSpace=wrap;html=1;right=0;top=0;bottom=0;fillColor=none;routingCenterX=-0.5;strokeColor=#000000;" vertex="1" parent="1cnSTbWCLQz26yeDxx1u-134">
          <mxGeometry x="8" width="10" height="160" as="geometry" />
        </mxCell>
        <mxCell id="1cnSTbWCLQz26yeDxx1u-140" value="" style="shape=partialRectangle;whiteSpace=wrap;html=1;right=0;top=0;bottom=0;fillColor=none;routingCenterX=-0.5;strokeColor=#000000;" vertex="1" parent="1cnSTbWCLQz26yeDxx1u-134">
          <mxGeometry x="10" width="10" height="160" as="geometry" />
        </mxCell>
        <mxCell id="1cnSTbWCLQz26yeDxx1u-141" value="" style="shape=partialRectangle;whiteSpace=wrap;html=1;right=0;top=0;bottom=0;fillColor=none;routingCenterX=-0.5;strokeColor=#000000;" vertex="1" parent="1cnSTbWCLQz26yeDxx1u-134">
          <mxGeometry x="12" width="10" height="160" as="geometry" />
        </mxCell>
        <mxCell id="1cnSTbWCLQz26yeDxx1u-142" value="" style="shape=partialRectangle;whiteSpace=wrap;html=1;right=0;top=0;bottom=0;fillColor=none;routingCenterX=-0.5;strokeColor=#000000;" vertex="1" parent="1cnSTbWCLQz26yeDxx1u-134">
          <mxGeometry x="14" width="10" height="160" as="geometry" />
        </mxCell>
        <mxCell id="1cnSTbWCLQz26yeDxx1u-143" value="" style="shape=partialRectangle;whiteSpace=wrap;html=1;right=0;top=0;bottom=0;fillColor=none;routingCenterX=-0.5;strokeColor=#000000;" vertex="1" parent="1cnSTbWCLQz26yeDxx1u-134">
          <mxGeometry x="16" width="10" height="160" as="geometry" />
        </mxCell>
        <mxCell id="1cnSTbWCLQz26yeDxx1u-144" value="" style="shape=partialRectangle;whiteSpace=wrap;html=1;right=0;top=0;bottom=0;fillColor=none;routingCenterX=-0.5;strokeColor=#000000;" vertex="1" parent="1cnSTbWCLQz26yeDxx1u-134">
          <mxGeometry x="18" width="10" height="160" as="geometry" />
        </mxCell>
        <mxCell id="1cnSTbWCLQz26yeDxx1u-145" value="" style="shape=partialRectangle;whiteSpace=wrap;html=1;right=0;top=0;bottom=0;fillColor=none;routingCenterX=-0.5;strokeColor=#000000;" vertex="1" parent="1cnSTbWCLQz26yeDxx1u-134">
          <mxGeometry x="20" width="10" height="160" as="geometry" />
        </mxCell>
        <mxCell id="1cnSTbWCLQz26yeDxx1u-146" value="" style="shape=partialRectangle;whiteSpace=wrap;html=1;right=0;top=0;bottom=0;fillColor=none;routingCenterX=-0.5;strokeColor=#000000;" vertex="1" parent="1cnSTbWCLQz26yeDxx1u-134">
          <mxGeometry x="22" width="10" height="160" as="geometry" />
        </mxCell>
        <mxCell id="1cnSTbWCLQz26yeDxx1u-147" value="" style="shape=partialRectangle;whiteSpace=wrap;html=1;right=0;top=0;bottom=0;fillColor=none;routingCenterX=-0.5;strokeColor=#000000;" vertex="1" parent="1cnSTbWCLQz26yeDxx1u-134">
          <mxGeometry x="24" width="10" height="160" as="geometry" />
        </mxCell>
        <mxCell id="1cnSTbWCLQz26yeDxx1u-148" value="" style="shape=partialRectangle;whiteSpace=wrap;html=1;right=0;top=0;bottom=0;fillColor=none;routingCenterX=-0.5;strokeColor=#000000;" vertex="1" parent="1cnSTbWCLQz26yeDxx1u-134">
          <mxGeometry x="26" width="10" height="160" as="geometry" />
        </mxCell>
        <mxCell id="1cnSTbWCLQz26yeDxx1u-149" value="" style="shape=partialRectangle;whiteSpace=wrap;html=1;right=0;top=0;bottom=0;fillColor=none;routingCenterX=-0.5;strokeColor=#000000;" vertex="1" parent="1cnSTbWCLQz26yeDxx1u-134">
          <mxGeometry x="28" width="10" height="160" as="geometry" />
        </mxCell>
        <mxCell id="1cnSTbWCLQz26yeDxx1u-150" value="" style="shape=partialRectangle;whiteSpace=wrap;html=1;right=0;top=0;bottom=0;fillColor=none;routingCenterX=-0.5;strokeColor=#000000;" vertex="1" parent="1cnSTbWCLQz26yeDxx1u-134">
          <mxGeometry x="30" width="10" height="160" as="geometry" />
        </mxCell>
        <mxCell id="1cnSTbWCLQz26yeDxx1u-151" value="" style="group" connectable="0" vertex="1" parent="1cnSTbWCLQz26yeDxx1u-168">
          <mxGeometry x="218" width="40" height="160" as="geometry" />
        </mxCell>
        <mxCell id="1cnSTbWCLQz26yeDxx1u-152" value="" style="shape=partialRectangle;whiteSpace=wrap;html=1;right=0;top=0;bottom=0;fillColor=none;routingCenterX=-0.5;strokeColor=#000000;" vertex="1" parent="1cnSTbWCLQz26yeDxx1u-151">
          <mxGeometry width="10" height="160" as="geometry" />
        </mxCell>
        <mxCell id="1cnSTbWCLQz26yeDxx1u-153" value="" style="shape=partialRectangle;whiteSpace=wrap;html=1;right=0;top=0;bottom=0;fillColor=none;routingCenterX=-0.5;strokeColor=#000000;" vertex="1" parent="1cnSTbWCLQz26yeDxx1u-151">
          <mxGeometry x="2" width="10" height="160" as="geometry" />
        </mxCell>
        <mxCell id="1cnSTbWCLQz26yeDxx1u-154" value="" style="shape=partialRectangle;whiteSpace=wrap;html=1;right=0;top=0;bottom=0;fillColor=none;routingCenterX=-0.5;strokeColor=#000000;" vertex="1" parent="1cnSTbWCLQz26yeDxx1u-151">
          <mxGeometry x="4" width="10" height="160" as="geometry" />
        </mxCell>
        <mxCell id="1cnSTbWCLQz26yeDxx1u-155" value="" style="shape=partialRectangle;whiteSpace=wrap;html=1;right=0;top=0;bottom=0;fillColor=none;routingCenterX=-0.5;strokeColor=#000000;" vertex="1" parent="1cnSTbWCLQz26yeDxx1u-151">
          <mxGeometry x="6" width="10" height="160" as="geometry" />
        </mxCell>
        <mxCell id="1cnSTbWCLQz26yeDxx1u-156" value="" style="shape=partialRectangle;whiteSpace=wrap;html=1;right=0;top=0;bottom=0;fillColor=none;routingCenterX=-0.5;strokeColor=#000000;" vertex="1" parent="1cnSTbWCLQz26yeDxx1u-151">
          <mxGeometry x="8" width="10" height="160" as="geometry" />
        </mxCell>
        <mxCell id="1cnSTbWCLQz26yeDxx1u-157" value="" style="shape=partialRectangle;whiteSpace=wrap;html=1;right=0;top=0;bottom=0;fillColor=none;routingCenterX=-0.5;strokeColor=#000000;" vertex="1" parent="1cnSTbWCLQz26yeDxx1u-151">
          <mxGeometry x="10" width="10" height="160" as="geometry" />
        </mxCell>
        <mxCell id="1cnSTbWCLQz26yeDxx1u-158" value="" style="shape=partialRectangle;whiteSpace=wrap;html=1;right=0;top=0;bottom=0;fillColor=none;routingCenterX=-0.5;strokeColor=#000000;" vertex="1" parent="1cnSTbWCLQz26yeDxx1u-151">
          <mxGeometry x="12" width="10" height="160" as="geometry" />
        </mxCell>
        <mxCell id="1cnSTbWCLQz26yeDxx1u-159" value="" style="shape=partialRectangle;whiteSpace=wrap;html=1;right=0;top=0;bottom=0;fillColor=none;routingCenterX=-0.5;strokeColor=#000000;" vertex="1" parent="1cnSTbWCLQz26yeDxx1u-151">
          <mxGeometry x="14" width="10" height="160" as="geometry" />
        </mxCell>
        <mxCell id="1cnSTbWCLQz26yeDxx1u-160" value="" style="shape=partialRectangle;whiteSpace=wrap;html=1;right=0;top=0;bottom=0;fillColor=none;routingCenterX=-0.5;strokeColor=#000000;" vertex="1" parent="1cnSTbWCLQz26yeDxx1u-151">
          <mxGeometry x="16" width="10" height="160" as="geometry" />
        </mxCell>
        <mxCell id="1cnSTbWCLQz26yeDxx1u-161" value="" style="shape=partialRectangle;whiteSpace=wrap;html=1;right=0;top=0;bottom=0;fillColor=none;routingCenterX=-0.5;strokeColor=#000000;" vertex="1" parent="1cnSTbWCLQz26yeDxx1u-151">
          <mxGeometry x="18" width="10" height="160" as="geometry" />
        </mxCell>
        <mxCell id="1cnSTbWCLQz26yeDxx1u-162" value="" style="shape=partialRectangle;whiteSpace=wrap;html=1;right=0;top=0;bottom=0;fillColor=none;routingCenterX=-0.5;strokeColor=#000000;" vertex="1" parent="1cnSTbWCLQz26yeDxx1u-151">
          <mxGeometry x="20" width="10" height="160" as="geometry" />
        </mxCell>
        <mxCell id="1cnSTbWCLQz26yeDxx1u-163" value="" style="shape=partialRectangle;whiteSpace=wrap;html=1;right=0;top=0;bottom=0;fillColor=none;routingCenterX=-0.5;strokeColor=#000000;" vertex="1" parent="1cnSTbWCLQz26yeDxx1u-151">
          <mxGeometry x="22" width="10" height="160" as="geometry" />
        </mxCell>
        <mxCell id="1cnSTbWCLQz26yeDxx1u-164" value="" style="shape=partialRectangle;whiteSpace=wrap;html=1;right=0;top=0;bottom=0;fillColor=none;routingCenterX=-0.5;strokeColor=#000000;" vertex="1" parent="1cnSTbWCLQz26yeDxx1u-151">
          <mxGeometry x="24" width="10" height="160" as="geometry" />
        </mxCell>
        <mxCell id="1cnSTbWCLQz26yeDxx1u-165" value="" style="shape=partialRectangle;whiteSpace=wrap;html=1;right=0;top=0;bottom=0;fillColor=none;routingCenterX=-0.5;strokeColor=#000000;" vertex="1" parent="1cnSTbWCLQz26yeDxx1u-151">
          <mxGeometry x="26" width="10" height="160" as="geometry" />
        </mxCell>
        <mxCell id="1cnSTbWCLQz26yeDxx1u-166" value="" style="shape=partialRectangle;whiteSpace=wrap;html=1;right=0;top=0;bottom=0;fillColor=none;routingCenterX=-0.5;strokeColor=#000000;" vertex="1" parent="1cnSTbWCLQz26yeDxx1u-151">
          <mxGeometry x="28" width="10" height="160" as="geometry" />
        </mxCell>
        <mxCell id="1cnSTbWCLQz26yeDxx1u-167" value="" style="shape=partialRectangle;whiteSpace=wrap;html=1;right=0;top=0;bottom=0;fillColor=none;routingCenterX=-0.5;strokeColor=#000000;" vertex="1" parent="1cnSTbWCLQz26yeDxx1u-151">
          <mxGeometry x="30" width="10" height="160" as="geometry" />
        </mxCell>
        <mxCell id="1cnSTbWCLQz26yeDxx1u-46" value="" style="group" connectable="0" vertex="1" parent="1cnSTbWCLQz26yeDxx1u-168">
          <mxGeometry x="2" width="40" height="160" as="geometry" />
        </mxCell>
        <mxCell id="1cnSTbWCLQz26yeDxx1u-30" value="" style="shape=partialRectangle;whiteSpace=wrap;html=1;right=0;top=0;bottom=0;fillColor=none;routingCenterX=-0.5;strokeColor=#000000;" vertex="1" parent="1cnSTbWCLQz26yeDxx1u-46">
          <mxGeometry width="10" height="160" as="geometry" />
        </mxCell>
        <mxCell id="1cnSTbWCLQz26yeDxx1u-31" value="" style="shape=partialRectangle;whiteSpace=wrap;html=1;right=0;top=0;bottom=0;fillColor=none;routingCenterX=-0.5;strokeColor=#000000;" vertex="1" parent="1cnSTbWCLQz26yeDxx1u-46">
          <mxGeometry x="2" width="10" height="160" as="geometry" />
        </mxCell>
        <mxCell id="1cnSTbWCLQz26yeDxx1u-32" value="" style="shape=partialRectangle;whiteSpace=wrap;html=1;right=0;top=0;bottom=0;fillColor=none;routingCenterX=-0.5;strokeColor=#000000;" vertex="1" parent="1cnSTbWCLQz26yeDxx1u-46">
          <mxGeometry x="4" width="10" height="160" as="geometry" />
        </mxCell>
        <mxCell id="1cnSTbWCLQz26yeDxx1u-33" value="" style="shape=partialRectangle;whiteSpace=wrap;html=1;right=0;top=0;bottom=0;fillColor=none;routingCenterX=-0.5;strokeColor=#000000;" vertex="1" parent="1cnSTbWCLQz26yeDxx1u-46">
          <mxGeometry x="6" width="10" height="160" as="geometry" />
        </mxCell>
        <mxCell id="1cnSTbWCLQz26yeDxx1u-34" value="" style="shape=partialRectangle;whiteSpace=wrap;html=1;right=0;top=0;bottom=0;fillColor=none;routingCenterX=-0.5;strokeColor=#000000;" vertex="1" parent="1cnSTbWCLQz26yeDxx1u-46">
          <mxGeometry x="8" width="10" height="160" as="geometry" />
        </mxCell>
        <mxCell id="1cnSTbWCLQz26yeDxx1u-35" value="" style="shape=partialRectangle;whiteSpace=wrap;html=1;right=0;top=0;bottom=0;fillColor=none;routingCenterX=-0.5;strokeColor=#000000;" vertex="1" parent="1cnSTbWCLQz26yeDxx1u-46">
          <mxGeometry x="10" width="10" height="160" as="geometry" />
        </mxCell>
        <mxCell id="1cnSTbWCLQz26yeDxx1u-36" value="" style="shape=partialRectangle;whiteSpace=wrap;html=1;right=0;top=0;bottom=0;fillColor=none;routingCenterX=-0.5;strokeColor=#000000;" vertex="1" parent="1cnSTbWCLQz26yeDxx1u-46">
          <mxGeometry x="12" width="10" height="160" as="geometry" />
        </mxCell>
        <mxCell id="1cnSTbWCLQz26yeDxx1u-37" value="" style="shape=partialRectangle;whiteSpace=wrap;html=1;right=0;top=0;bottom=0;fillColor=none;routingCenterX=-0.5;strokeColor=#000000;" vertex="1" parent="1cnSTbWCLQz26yeDxx1u-46">
          <mxGeometry x="14" width="10" height="160" as="geometry" />
        </mxCell>
        <mxCell id="1cnSTbWCLQz26yeDxx1u-38" value="" style="shape=partialRectangle;whiteSpace=wrap;html=1;right=0;top=0;bottom=0;fillColor=none;routingCenterX=-0.5;strokeColor=#000000;" vertex="1" parent="1cnSTbWCLQz26yeDxx1u-46">
          <mxGeometry x="16" width="10" height="160" as="geometry" />
        </mxCell>
        <mxCell id="1cnSTbWCLQz26yeDxx1u-39" value="" style="shape=partialRectangle;whiteSpace=wrap;html=1;right=0;top=0;bottom=0;fillColor=none;routingCenterX=-0.5;strokeColor=#000000;" vertex="1" parent="1cnSTbWCLQz26yeDxx1u-46">
          <mxGeometry x="18" width="10" height="160" as="geometry" />
        </mxCell>
        <mxCell id="1cnSTbWCLQz26yeDxx1u-40" value="" style="shape=partialRectangle;whiteSpace=wrap;html=1;right=0;top=0;bottom=0;fillColor=none;routingCenterX=-0.5;strokeColor=#000000;" vertex="1" parent="1cnSTbWCLQz26yeDxx1u-46">
          <mxGeometry x="20" width="10" height="160" as="geometry" />
        </mxCell>
        <mxCell id="1cnSTbWCLQz26yeDxx1u-41" value="" style="shape=partialRectangle;whiteSpace=wrap;html=1;right=0;top=0;bottom=0;fillColor=none;routingCenterX=-0.5;strokeColor=#000000;" vertex="1" parent="1cnSTbWCLQz26yeDxx1u-46">
          <mxGeometry x="22" width="10" height="160" as="geometry" />
        </mxCell>
        <mxCell id="1cnSTbWCLQz26yeDxx1u-42" value="" style="shape=partialRectangle;whiteSpace=wrap;html=1;right=0;top=0;bottom=0;fillColor=none;routingCenterX=-0.5;strokeColor=#000000;" vertex="1" parent="1cnSTbWCLQz26yeDxx1u-46">
          <mxGeometry x="24" width="10" height="160" as="geometry" />
        </mxCell>
        <mxCell id="1cnSTbWCLQz26yeDxx1u-43" value="" style="shape=partialRectangle;whiteSpace=wrap;html=1;right=0;top=0;bottom=0;fillColor=none;routingCenterX=-0.5;strokeColor=#000000;" vertex="1" parent="1cnSTbWCLQz26yeDxx1u-46">
          <mxGeometry x="26" width="10" height="160" as="geometry" />
        </mxCell>
        <mxCell id="1cnSTbWCLQz26yeDxx1u-44" value="" style="shape=partialRectangle;whiteSpace=wrap;html=1;right=0;top=0;bottom=0;fillColor=none;routingCenterX=-0.5;strokeColor=#000000;" vertex="1" parent="1cnSTbWCLQz26yeDxx1u-46">
          <mxGeometry x="28" width="10" height="160" as="geometry" />
        </mxCell>
        <mxCell id="1cnSTbWCLQz26yeDxx1u-45" value="" style="shape=partialRectangle;whiteSpace=wrap;html=1;right=0;top=0;bottom=0;fillColor=none;routingCenterX=-0.5;strokeColor=#000000;" vertex="1" parent="1cnSTbWCLQz26yeDxx1u-46">
          <mxGeometry x="30" width="10" height="160" as="geometry" />
        </mxCell>
        <mxCell id="1cnSTbWCLQz26yeDxx1u-47" value="" style="group" connectable="0" vertex="1" parent="1cnSTbWCLQz26yeDxx1u-168">
          <mxGeometry x="34" width="40" height="160" as="geometry" />
        </mxCell>
        <mxCell id="1cnSTbWCLQz26yeDxx1u-48" value="" style="shape=partialRectangle;whiteSpace=wrap;html=1;right=0;top=0;bottom=0;fillColor=none;routingCenterX=-0.5;strokeColor=#000000;" vertex="1" parent="1cnSTbWCLQz26yeDxx1u-47">
          <mxGeometry width="10" height="160" as="geometry" />
        </mxCell>
        <mxCell id="1cnSTbWCLQz26yeDxx1u-49" value="" style="shape=partialRectangle;whiteSpace=wrap;html=1;right=0;top=0;bottom=0;fillColor=none;routingCenterX=-0.5;strokeColor=#000000;" vertex="1" parent="1cnSTbWCLQz26yeDxx1u-47">
          <mxGeometry x="2" width="10" height="160" as="geometry" />
        </mxCell>
        <mxCell id="1cnSTbWCLQz26yeDxx1u-50" value="" style="shape=partialRectangle;whiteSpace=wrap;html=1;right=0;top=0;bottom=0;fillColor=none;routingCenterX=-0.5;strokeColor=#000000;" vertex="1" parent="1cnSTbWCLQz26yeDxx1u-47">
          <mxGeometry x="4" width="10" height="160" as="geometry" />
        </mxCell>
        <mxCell id="1cnSTbWCLQz26yeDxx1u-51" value="" style="shape=partialRectangle;whiteSpace=wrap;html=1;right=0;top=0;bottom=0;fillColor=none;routingCenterX=-0.5;strokeColor=#000000;" vertex="1" parent="1cnSTbWCLQz26yeDxx1u-47">
          <mxGeometry x="6" width="10" height="160" as="geometry" />
        </mxCell>
        <mxCell id="1cnSTbWCLQz26yeDxx1u-52" value="" style="shape=partialRectangle;whiteSpace=wrap;html=1;right=0;top=0;bottom=0;fillColor=none;routingCenterX=-0.5;strokeColor=#000000;" vertex="1" parent="1cnSTbWCLQz26yeDxx1u-47">
          <mxGeometry x="8" width="10" height="160" as="geometry" />
        </mxCell>
        <mxCell id="1cnSTbWCLQz26yeDxx1u-53" value="" style="shape=partialRectangle;whiteSpace=wrap;html=1;right=0;top=0;bottom=0;fillColor=none;routingCenterX=-0.5;strokeColor=#000000;" vertex="1" parent="1cnSTbWCLQz26yeDxx1u-47">
          <mxGeometry x="10" width="10" height="160" as="geometry" />
        </mxCell>
        <mxCell id="1cnSTbWCLQz26yeDxx1u-54" value="" style="shape=partialRectangle;whiteSpace=wrap;html=1;right=0;top=0;bottom=0;fillColor=none;routingCenterX=-0.5;strokeColor=#000000;" vertex="1" parent="1cnSTbWCLQz26yeDxx1u-47">
          <mxGeometry x="12" width="10" height="160" as="geometry" />
        </mxCell>
        <mxCell id="1cnSTbWCLQz26yeDxx1u-55" value="" style="shape=partialRectangle;whiteSpace=wrap;html=1;right=0;top=0;bottom=0;fillColor=none;routingCenterX=-0.5;strokeColor=#000000;" vertex="1" parent="1cnSTbWCLQz26yeDxx1u-47">
          <mxGeometry x="14" width="10" height="160" as="geometry" />
        </mxCell>
        <mxCell id="1cnSTbWCLQz26yeDxx1u-56" value="" style="shape=partialRectangle;whiteSpace=wrap;html=1;right=0;top=0;bottom=0;fillColor=none;routingCenterX=-0.5;strokeColor=#000000;" vertex="1" parent="1cnSTbWCLQz26yeDxx1u-47">
          <mxGeometry x="16" width="10" height="160" as="geometry" />
        </mxCell>
        <mxCell id="1cnSTbWCLQz26yeDxx1u-57" value="" style="shape=partialRectangle;whiteSpace=wrap;html=1;right=0;top=0;bottom=0;fillColor=none;routingCenterX=-0.5;strokeColor=#000000;" vertex="1" parent="1cnSTbWCLQz26yeDxx1u-47">
          <mxGeometry x="18" width="10" height="160" as="geometry" />
        </mxCell>
        <mxCell id="1cnSTbWCLQz26yeDxx1u-58" value="" style="shape=partialRectangle;whiteSpace=wrap;html=1;right=0;top=0;bottom=0;fillColor=none;routingCenterX=-0.5;strokeColor=#000000;" vertex="1" parent="1cnSTbWCLQz26yeDxx1u-47">
          <mxGeometry x="20" width="10" height="160" as="geometry" />
        </mxCell>
        <mxCell id="1cnSTbWCLQz26yeDxx1u-59" value="" style="shape=partialRectangle;whiteSpace=wrap;html=1;right=0;top=0;bottom=0;fillColor=none;routingCenterX=-0.5;strokeColor=#000000;" vertex="1" parent="1cnSTbWCLQz26yeDxx1u-47">
          <mxGeometry x="22" width="10" height="160" as="geometry" />
        </mxCell>
        <mxCell id="1cnSTbWCLQz26yeDxx1u-60" value="" style="shape=partialRectangle;whiteSpace=wrap;html=1;right=0;top=0;bottom=0;fillColor=none;routingCenterX=-0.5;strokeColor=#000000;" vertex="1" parent="1cnSTbWCLQz26yeDxx1u-47">
          <mxGeometry x="24" width="10" height="160" as="geometry" />
        </mxCell>
        <mxCell id="1cnSTbWCLQz26yeDxx1u-61" value="" style="shape=partialRectangle;whiteSpace=wrap;html=1;right=0;top=0;bottom=0;fillColor=none;routingCenterX=-0.5;strokeColor=#000000;" vertex="1" parent="1cnSTbWCLQz26yeDxx1u-47">
          <mxGeometry x="26" width="10" height="160" as="geometry" />
        </mxCell>
        <mxCell id="1cnSTbWCLQz26yeDxx1u-62" value="" style="shape=partialRectangle;whiteSpace=wrap;html=1;right=0;top=0;bottom=0;fillColor=none;routingCenterX=-0.5;strokeColor=#000000;" vertex="1" parent="1cnSTbWCLQz26yeDxx1u-47">
          <mxGeometry x="28" width="10" height="160" as="geometry" />
        </mxCell>
        <mxCell id="1cnSTbWCLQz26yeDxx1u-63" value="" style="shape=partialRectangle;whiteSpace=wrap;html=1;right=0;top=0;bottom=0;fillColor=none;routingCenterX=-0.5;strokeColor=#000000;" vertex="1" parent="1cnSTbWCLQz26yeDxx1u-47">
          <mxGeometry x="30" width="10" height="160" as="geometry" />
        </mxCell>
        <mxCell id="1cnSTbWCLQz26yeDxx1u-64" value="" style="group" connectable="0" vertex="1" parent="1cnSTbWCLQz26yeDxx1u-168">
          <mxGeometry x="66" width="40" height="160" as="geometry" />
        </mxCell>
        <mxCell id="1cnSTbWCLQz26yeDxx1u-65" value="" style="shape=partialRectangle;whiteSpace=wrap;html=1;right=0;top=0;bottom=0;fillColor=none;routingCenterX=-0.5;strokeColor=#000000;" vertex="1" parent="1cnSTbWCLQz26yeDxx1u-64">
          <mxGeometry width="10" height="160" as="geometry" />
        </mxCell>
        <mxCell id="1cnSTbWCLQz26yeDxx1u-66" value="" style="shape=partialRectangle;whiteSpace=wrap;html=1;right=0;top=0;bottom=0;fillColor=none;routingCenterX=-0.5;strokeColor=#000000;" vertex="1" parent="1cnSTbWCLQz26yeDxx1u-64">
          <mxGeometry x="2" width="10" height="160" as="geometry" />
        </mxCell>
        <mxCell id="1cnSTbWCLQz26yeDxx1u-67" value="" style="shape=partialRectangle;whiteSpace=wrap;html=1;right=0;top=0;bottom=0;fillColor=none;routingCenterX=-0.5;strokeColor=#000000;" vertex="1" parent="1cnSTbWCLQz26yeDxx1u-64">
          <mxGeometry x="4" width="10" height="160" as="geometry" />
        </mxCell>
        <mxCell id="1cnSTbWCLQz26yeDxx1u-68" value="" style="shape=partialRectangle;whiteSpace=wrap;html=1;right=0;top=0;bottom=0;fillColor=none;routingCenterX=-0.5;strokeColor=#000000;" vertex="1" parent="1cnSTbWCLQz26yeDxx1u-64">
          <mxGeometry x="6" width="10" height="160" as="geometry" />
        </mxCell>
        <mxCell id="1cnSTbWCLQz26yeDxx1u-69" value="" style="shape=partialRectangle;whiteSpace=wrap;html=1;right=0;top=0;bottom=0;fillColor=none;routingCenterX=-0.5;strokeColor=#000000;" vertex="1" parent="1cnSTbWCLQz26yeDxx1u-64">
          <mxGeometry x="8" width="10" height="160" as="geometry" />
        </mxCell>
        <mxCell id="1cnSTbWCLQz26yeDxx1u-70" value="" style="shape=partialRectangle;whiteSpace=wrap;html=1;right=0;top=0;bottom=0;fillColor=none;routingCenterX=-0.5;strokeColor=#000000;" vertex="1" parent="1cnSTbWCLQz26yeDxx1u-64">
          <mxGeometry x="10" width="10" height="160" as="geometry" />
        </mxCell>
        <mxCell id="1cnSTbWCLQz26yeDxx1u-71" value="" style="shape=partialRectangle;whiteSpace=wrap;html=1;right=0;top=0;bottom=0;fillColor=none;routingCenterX=-0.5;strokeColor=#000000;" vertex="1" parent="1cnSTbWCLQz26yeDxx1u-64">
          <mxGeometry x="12" width="10" height="160" as="geometry" />
        </mxCell>
        <mxCell id="1cnSTbWCLQz26yeDxx1u-72" value="" style="shape=partialRectangle;whiteSpace=wrap;html=1;right=0;top=0;bottom=0;fillColor=none;routingCenterX=-0.5;strokeColor=#000000;" vertex="1" parent="1cnSTbWCLQz26yeDxx1u-64">
          <mxGeometry x="14" width="10" height="160" as="geometry" />
        </mxCell>
        <mxCell id="1cnSTbWCLQz26yeDxx1u-73" value="" style="shape=partialRectangle;whiteSpace=wrap;html=1;right=0;top=0;bottom=0;fillColor=none;routingCenterX=-0.5;strokeColor=#000000;" vertex="1" parent="1cnSTbWCLQz26yeDxx1u-64">
          <mxGeometry x="16" width="10" height="160" as="geometry" />
        </mxCell>
        <mxCell id="1cnSTbWCLQz26yeDxx1u-74" value="" style="shape=partialRectangle;whiteSpace=wrap;html=1;right=0;top=0;bottom=0;fillColor=none;routingCenterX=-0.5;strokeColor=#000000;" vertex="1" parent="1cnSTbWCLQz26yeDxx1u-64">
          <mxGeometry x="18" width="10" height="160" as="geometry" />
        </mxCell>
        <mxCell id="1cnSTbWCLQz26yeDxx1u-75" value="" style="shape=partialRectangle;whiteSpace=wrap;html=1;right=0;top=0;bottom=0;fillColor=none;routingCenterX=-0.5;strokeColor=#000000;" vertex="1" parent="1cnSTbWCLQz26yeDxx1u-64">
          <mxGeometry x="20" width="10" height="160" as="geometry" />
        </mxCell>
        <mxCell id="1cnSTbWCLQz26yeDxx1u-76" value="" style="shape=partialRectangle;whiteSpace=wrap;html=1;right=0;top=0;bottom=0;fillColor=none;routingCenterX=-0.5;strokeColor=#000000;" vertex="1" parent="1cnSTbWCLQz26yeDxx1u-64">
          <mxGeometry x="22" width="10" height="160" as="geometry" />
        </mxCell>
        <mxCell id="1cnSTbWCLQz26yeDxx1u-77" value="" style="shape=partialRectangle;whiteSpace=wrap;html=1;right=0;top=0;bottom=0;fillColor=none;routingCenterX=-0.5;strokeColor=#000000;" vertex="1" parent="1cnSTbWCLQz26yeDxx1u-64">
          <mxGeometry x="24" width="10" height="160" as="geometry" />
        </mxCell>
        <mxCell id="1cnSTbWCLQz26yeDxx1u-78" value="" style="shape=partialRectangle;whiteSpace=wrap;html=1;right=0;top=0;bottom=0;fillColor=none;routingCenterX=-0.5;strokeColor=#000000;" vertex="1" parent="1cnSTbWCLQz26yeDxx1u-64">
          <mxGeometry x="26" width="10" height="160" as="geometry" />
        </mxCell>
        <mxCell id="1cnSTbWCLQz26yeDxx1u-79" value="" style="shape=partialRectangle;whiteSpace=wrap;html=1;right=0;top=0;bottom=0;fillColor=none;routingCenterX=-0.5;strokeColor=#000000;" vertex="1" parent="1cnSTbWCLQz26yeDxx1u-64">
          <mxGeometry x="28" width="10" height="160" as="geometry" />
        </mxCell>
        <mxCell id="1cnSTbWCLQz26yeDxx1u-80" value="" style="shape=partialRectangle;whiteSpace=wrap;html=1;right=0;top=0;bottom=0;fillColor=none;routingCenterX=-0.5;strokeColor=#000000;" vertex="1" parent="1cnSTbWCLQz26yeDxx1u-64">
          <mxGeometry x="30" width="10" height="160" as="geometry" />
        </mxCell>
        <mxCell id="1cnSTbWCLQz26yeDxx1u-81" value="" style="group" connectable="0" vertex="1" parent="1cnSTbWCLQz26yeDxx1u-168">
          <mxGeometry x="98" width="40" height="160" as="geometry" />
        </mxCell>
        <mxCell id="1cnSTbWCLQz26yeDxx1u-82" value="" style="shape=partialRectangle;whiteSpace=wrap;html=1;right=0;top=0;bottom=0;fillColor=none;routingCenterX=-0.5;strokeColor=#000000;" vertex="1" parent="1cnSTbWCLQz26yeDxx1u-81">
          <mxGeometry width="10" height="160" as="geometry" />
        </mxCell>
        <mxCell id="1cnSTbWCLQz26yeDxx1u-83" value="" style="shape=partialRectangle;whiteSpace=wrap;html=1;right=0;top=0;bottom=0;fillColor=none;routingCenterX=-0.5;strokeColor=#000000;" vertex="1" parent="1cnSTbWCLQz26yeDxx1u-81">
          <mxGeometry x="2" width="10" height="160" as="geometry" />
        </mxCell>
        <mxCell id="1cnSTbWCLQz26yeDxx1u-84" value="" style="shape=partialRectangle;whiteSpace=wrap;html=1;right=0;top=0;bottom=0;fillColor=none;routingCenterX=-0.5;strokeColor=#000000;" vertex="1" parent="1cnSTbWCLQz26yeDxx1u-81">
          <mxGeometry x="4" width="10" height="160" as="geometry" />
        </mxCell>
        <mxCell id="1cnSTbWCLQz26yeDxx1u-85" value="" style="shape=partialRectangle;whiteSpace=wrap;html=1;right=0;top=0;bottom=0;fillColor=none;routingCenterX=-0.5;strokeColor=#000000;" vertex="1" parent="1cnSTbWCLQz26yeDxx1u-81">
          <mxGeometry x="6" width="10" height="160" as="geometry" />
        </mxCell>
        <mxCell id="1cnSTbWCLQz26yeDxx1u-86" value="" style="shape=partialRectangle;whiteSpace=wrap;html=1;right=0;top=0;bottom=0;fillColor=none;routingCenterX=-0.5;strokeColor=#000000;" vertex="1" parent="1cnSTbWCLQz26yeDxx1u-81">
          <mxGeometry x="8" width="10" height="160" as="geometry" />
        </mxCell>
        <mxCell id="1cnSTbWCLQz26yeDxx1u-87" value="" style="shape=partialRectangle;whiteSpace=wrap;html=1;right=0;top=0;bottom=0;fillColor=none;routingCenterX=-0.5;strokeColor=#000000;" vertex="1" parent="1cnSTbWCLQz26yeDxx1u-81">
          <mxGeometry x="10" width="10" height="160" as="geometry" />
        </mxCell>
        <mxCell id="1cnSTbWCLQz26yeDxx1u-88" value="" style="shape=partialRectangle;whiteSpace=wrap;html=1;right=0;top=0;bottom=0;fillColor=none;routingCenterX=-0.5;strokeColor=#000000;" vertex="1" parent="1cnSTbWCLQz26yeDxx1u-81">
          <mxGeometry x="12" width="10" height="160" as="geometry" />
        </mxCell>
        <mxCell id="1cnSTbWCLQz26yeDxx1u-89" value="" style="shape=partialRectangle;whiteSpace=wrap;html=1;right=0;top=0;bottom=0;fillColor=none;routingCenterX=-0.5;strokeColor=#000000;" vertex="1" parent="1cnSTbWCLQz26yeDxx1u-81">
          <mxGeometry x="14" width="10" height="160" as="geometry" />
        </mxCell>
        <mxCell id="1cnSTbWCLQz26yeDxx1u-90" value="" style="shape=partialRectangle;whiteSpace=wrap;html=1;right=0;top=0;bottom=0;fillColor=none;routingCenterX=-0.5;strokeColor=#000000;" vertex="1" parent="1cnSTbWCLQz26yeDxx1u-81">
          <mxGeometry x="16" width="10" height="160" as="geometry" />
        </mxCell>
        <mxCell id="1cnSTbWCLQz26yeDxx1u-91" value="" style="shape=partialRectangle;whiteSpace=wrap;html=1;right=0;top=0;bottom=0;fillColor=none;routingCenterX=-0.5;strokeColor=#000000;" vertex="1" parent="1cnSTbWCLQz26yeDxx1u-81">
          <mxGeometry x="18" width="10" height="160" as="geometry" />
        </mxCell>
        <mxCell id="1cnSTbWCLQz26yeDxx1u-92" value="" style="shape=partialRectangle;whiteSpace=wrap;html=1;right=0;top=0;bottom=0;fillColor=none;routingCenterX=-0.5;strokeColor=#000000;" vertex="1" parent="1cnSTbWCLQz26yeDxx1u-81">
          <mxGeometry x="20" width="10" height="160" as="geometry" />
        </mxCell>
        <mxCell id="1cnSTbWCLQz26yeDxx1u-93" value="" style="shape=partialRectangle;whiteSpace=wrap;html=1;right=0;top=0;bottom=0;fillColor=none;routingCenterX=-0.5;strokeColor=#000000;" vertex="1" parent="1cnSTbWCLQz26yeDxx1u-81">
          <mxGeometry x="22" width="10" height="160" as="geometry" />
        </mxCell>
        <mxCell id="1cnSTbWCLQz26yeDxx1u-94" value="" style="shape=partialRectangle;whiteSpace=wrap;html=1;right=0;top=0;bottom=0;fillColor=none;routingCenterX=-0.5;strokeColor=#000000;" vertex="1" parent="1cnSTbWCLQz26yeDxx1u-81">
          <mxGeometry x="24" width="10" height="160" as="geometry" />
        </mxCell>
        <mxCell id="1cnSTbWCLQz26yeDxx1u-95" value="" style="shape=partialRectangle;whiteSpace=wrap;html=1;right=0;top=0;bottom=0;fillColor=none;routingCenterX=-0.5;strokeColor=#000000;" vertex="1" parent="1cnSTbWCLQz26yeDxx1u-81">
          <mxGeometry x="26" width="10" height="160" as="geometry" />
        </mxCell>
        <mxCell id="1cnSTbWCLQz26yeDxx1u-96" value="" style="shape=partialRectangle;whiteSpace=wrap;html=1;right=0;top=0;bottom=0;fillColor=none;routingCenterX=-0.5;strokeColor=#000000;" vertex="1" parent="1cnSTbWCLQz26yeDxx1u-81">
          <mxGeometry x="28" width="10" height="160" as="geometry" />
        </mxCell>
        <mxCell id="1cnSTbWCLQz26yeDxx1u-97" value="" style="shape=partialRectangle;whiteSpace=wrap;html=1;right=0;top=0;bottom=0;fillColor=none;routingCenterX=-0.5;strokeColor=#000000;" vertex="1" parent="1cnSTbWCLQz26yeDxx1u-81">
          <mxGeometry x="30" width="10" height="160" as="geometry" />
        </mxCell>
        <mxCell id="1cnSTbWCLQz26yeDxx1u-5" value="" style="ellipse;whiteSpace=wrap;html=1;aspect=fixed;strokeColor=#FFFFFF;" vertex="1" parent="1">
          <mxGeometry x="70" y="90" width="239.99999999999997" height="239.99999999999997" as="geometry" />
        </mxCell>
        <mxCell id="1cnSTbWCLQz26yeDxx1u-8" value="" style="ellipse;whiteSpace=wrap;html=1;aspect=fixed;fillColor=#007FFF;strokeColor=#6c8ebf;" vertex="1" parent="1">
          <mxGeometry x="75.45454545454545" y="95.45454545454547" width="229.09090909090907" height="229.09090909090907" as="geometry" />
        </mxCell>
        <mxCell id="1cnSTbWCLQz26yeDxx1u-9" value="" style="ellipse;whiteSpace=wrap;html=1;aspect=fixed;fillColor=#dae8fc;strokeColor=#6c8ebf;" vertex="1" parent="1">
          <mxGeometry x="95.63" y="115.63" width="188.75" height="188.75" as="geometry" />
        </mxCell>
        <mxCell id="1cnSTbWCLQz26yeDxx1u-11" value="" style="ellipse;whiteSpace=wrap;html=1;aspect=fixed;fontColor=#FFFFFF;strokeColor=#FFFFFF;" vertex="1" parent="1">
          <mxGeometry x="101.96000000000001" y="121.95999999999998" width="176.1" height="176.1" as="geometry" />
        </mxCell>
        <mxCell id="1cnSTbWCLQz26yeDxx1u-169" value="&lt;div style=&quot;font-size: 19px;&quot;&gt;Título&lt;/div&gt;&lt;div style=&quot;font-size: 19px;&quot;&gt;&lt;font style=&quot;font-size: 19px;&quot;&gt;texto&lt;span style=&quot;background-color: initial;&quot;&gt;texto&lt;/span&gt;&lt;span style=&quot;background-color: initial;&quot;&gt;texto&lt;/span&gt;&lt;span style=&quot;background-color: initial;&quot;&gt;texto&lt;/span&gt;&lt;span style=&quot;background-color: initial;&quot;&gt;texto&lt;/span&gt;&lt;span style=&quot;background-color: initial;&quot;&gt;texto&lt;/span&gt;&lt;span style=&quot;background-color: initial;&quot;&gt;texto&lt;/span&gt;&lt;span style=&quot;background-color: initial;&quot;&gt;texto&lt;/span&gt;&lt;span style=&quot;background-color: initial;&quot;&gt;texto&lt;/span&gt;&lt;span style=&quot;background-color: initial;&quot;&gt;texto&lt;/span&gt;&lt;/font&gt;&lt;/div&gt;&lt;div style=&quot;font-size: 19px;&quot;&gt;&lt;font style=&quot;font-size: 19px;&quot;&gt;texto&lt;span style=&quot;background-color: initial;&quot;&gt;texto&lt;/span&gt;&lt;span style=&quot;background-color: initial;&quot;&gt;texto&lt;/span&gt;&lt;span style=&quot;background-color: initial;&quot;&gt;texto&lt;/span&gt;&lt;span style=&quot;background-color: initial;&quot;&gt;texto&lt;/span&gt;&lt;span style=&quot;background-color: initial;&quot;&gt;texto&lt;/span&gt;&lt;span style=&quot;background-color: initial;&quot;&gt;texto&lt;/span&gt;&lt;span style=&quot;background-color: initial;&quot;&gt;texto&lt;/span&gt;&lt;span style=&quot;background-color: initial;&quot;&gt;texto&lt;/span&gt;&lt;span style=&quot;background-color: initial;&quot;&gt;texto&lt;/span&gt;&lt;br&gt;&lt;/font&gt;&lt;/div&gt;&lt;div style=&quot;font-size: 19px;&quot;&gt;&lt;font style=&quot;font-size: 19px;&quot;&gt;texto&lt;span style=&quot;background-color: initial;&quot;&gt;texto&lt;/span&gt;&lt;span style=&quot;background-color: initial;&quot;&gt;texto&lt;/span&gt;&lt;span style=&quot;background-color: initial;&quot;&gt;texto&lt;/span&gt;&lt;span style=&quot;background-color: initial;&quot;&gt;texto&lt;/span&gt;&lt;span style=&quot;background-color: initial;&quot;&gt;t.&lt;/span&gt;&lt;/font&gt;&lt;/div&gt;" style="text;html=1;align=right;verticalAlign=middle;whiteSpace=wrap;rounded=0;fontSize=20;" vertex="1" parent="1">
          <mxGeometry x="342" y="410" width="460" height="115.62" as="geometry" />
        </mxCell>
      </root>
    </mxGraphModel>
  </diagram>
</mxfile>
